<svg xmlns="http://www.w3.org/2000/svg" width="24" height="57.066" viewBox="0 0 24 57.066">
  <g id="Group_1269" data-name="Group 1269" transform="translate(-372 -1051.935)">
    <g id="layer1" transform="translate(396 1051.935) rotate(90)">
      <path id="rect1406" d="M0,0V2.183H2.284V0ZM2.284,2.183V4.364H4.567V2.183ZM4.567,4.364V6.547H6.851V4.364ZM6.851,6.547V8.729H9.133V6.547ZM9.133,8.729v2.183h2.284V8.729Zm2.284,2.183V13.09H13.7V10.911Zm0,2.178H9.133v2.182h2.284ZM9.133,15.271H6.851v2.183H9.133ZM6.851,17.454H4.567v2.182H6.851ZM4.567,19.636H2.284v2.183H4.567ZM2.284,21.818H0V24H2.284Z" transform="translate(0)" fill="#f7ae21"/>
    </g>
    <g id="layer1-2" data-name="layer1" transform="translate(396 1073.619) rotate(90)">
      <path id="rect1406-2" data-name="rect1406" d="M0,0V2.183H2.284V0ZM2.284,2.183V4.364H4.567V2.183ZM4.567,4.364V6.547H6.851V4.364ZM6.851,6.547V8.729H9.133V6.547ZM9.133,8.729v2.183h2.284V8.729Zm2.284,2.183V13.09H13.7V10.911Zm0,2.178H9.133v2.182h2.284ZM9.133,15.271H6.851v2.183H9.133ZM6.851,17.454H4.567v2.182H6.851ZM4.567,19.636H2.284v2.183H4.567ZM2.284,21.818H0V24H2.284Z" transform="translate(0)" fill="#f7ae21"/>
    </g>
    <g id="layer1-3" data-name="layer1" transform="translate(396 1095.305) rotate(90)">
      <path id="rect1406-3" data-name="rect1406" d="M0,0V2.183H2.284V0ZM2.284,2.183V4.364H4.567V2.183ZM4.567,4.364V6.547H6.851V4.364ZM6.851,6.547V8.729H9.133V6.547ZM9.133,8.729v2.183h2.284V8.729Zm2.284,2.183V13.09H13.7V10.911Zm0,2.178H9.133v2.182h2.284ZM9.133,15.271H6.851v2.183H9.133ZM6.851,17.454H4.567v2.182H6.851ZM4.567,19.636H2.284v2.183H4.567ZM2.284,21.818H0V24H2.284Z" transform="translate(0)" fill="#f7ae21"/>
    </g>
  </g>
</svg>
